<?xml version="1.0" encoding="UTF-8"?> <svg xmlns="http://www.w3.org/2000/svg" width="123" height="26" viewBox="0 0 123 26" fill="none"> <g clip-path="url(#clip0_548_252)"> <path d="M22.157 0.0711772H19.1355V14.3352H29.4394V11.9592H22.157V0.0711772Z" fill="black"></path> <path d="M78.8998 0.0739083L72.1631 14.3352H75.1791L76.3197 11.9264H84.7976L85.9108 14.3352H88.9268L82.2668 0.0739083H78.8998ZM77.4411 9.5504L80.5696 2.93164L83.6981 9.5504H77.4411Z" fill="black"></path> <path d="M113.768 11.9592V8.38979H120.809V6.01656H113.768V2.44714H122.764V0.0711772H110.722V14.3352H123V11.9592H113.768Z" fill="black"></path> <path d="M3.04347 8.38979H10.0873V6.01656H3.04347V2.44714H12.0395V0.0711772H0V14.3352H12.2781V11.9592H3.04347V8.38979Z" fill="black"></path> <path d="M91.5206 2.44714H97.1387V14.3352H100.16V2.44714H105.8V0.0711772H91.5206V2.44714Z" fill="black"></path> <path d="M45.6328 5.95086H38.9372C38.1421 5.95086 37.495 5.16253 37.495 4.19353C37.495 3.22453 38.1421 2.43618 38.9372 2.43618H48.7257V0H38.6356C36.3983 0 34.5777 1.88052 34.5777 4.19079C34.5777 6.50106 36.3983 8.38157 38.6356 8.38157H45.3312C46.1264 8.38157 46.7735 9.16991 46.7735 10.1389C46.7735 11.1079 46.1264 11.8962 45.3312 11.8962H35.1315V14.3324H45.6328C47.8702 14.3324 49.6908 12.4519 49.6908 10.1416C49.6908 7.83138 47.8702 5.95086 45.6328 5.95086Z" fill="black"></path> <path d="M54.3602 2.44714H59.9782V14.3352H62.9998V2.44714H68.6398V0.0711772H54.3602V2.44714Z" fill="black"></path> <path d="M0.150724 21.37H2.51147V22.079H0.858125V22.9576H2.18793V23.6638H0.858125V25.2487H0.150724V21.37Z" fill="black"></path> <path d="M5.37125 25.246L6.56945 21.37H7.62232L8.82326 25.246H8.09118L7.01911 21.808H7.16169L6.10059 25.246H5.37125ZM6.07591 24.4276V23.7679H8.12134V24.4276H6.07591Z" fill="black"></path> <path d="M12.001 25.246V21.37H12.6372L13.9395 23.9951L15.2392 21.37H15.8753V25.246H15.2145V22.881L14.0657 25.246H13.8107L12.6618 22.881V25.246H12.001Z" fill="black"></path> <path d="M19.3822 25.246V21.37H20.0923V25.246H19.3822Z" fill="black"></path> <path d="M23.6485 25.246V21.37H24.3586V24.5863H26.0421V25.246H23.6485Z" fill="black"></path> <path d="M29.6038 25.246V23.6666L28.2795 21.37H29.1075L29.963 22.8564L30.8212 21.37H31.6492L30.3249 23.6666V25.246H29.6038Z" fill="black"></path> <path d="M38.2818 25.246V21.37H39.9105C39.9489 21.37 39.9982 21.37 40.0613 21.3755C40.1244 21.3755 40.1819 21.3837 40.2313 21.3919C40.4589 21.4275 40.6481 21.5041 40.7961 21.6191C40.9442 21.7341 41.0539 21.8819 41.1224 22.0571C41.1937 22.2322 41.2266 22.4293 41.2266 22.6456C41.2266 22.8618 41.1909 23.0562 41.1197 23.2314C41.0484 23.4065 40.9387 23.5544 40.7906 23.6693C40.6426 23.787 40.4561 23.8609 40.2286 23.8993C40.1792 23.9075 40.1216 23.9129 40.0586 23.9157C39.9955 23.9184 39.9461 23.9212 39.9078 23.9212H38.9892V25.246H38.2791H38.2818ZM38.992 23.2587H39.8831C39.9187 23.2587 39.9599 23.2587 40.0037 23.2533C40.0476 23.2505 40.0887 23.2423 40.1271 23.2314C40.2286 23.204 40.3081 23.1575 40.3657 23.0945C40.4232 23.0288 40.4616 22.9576 40.4835 22.8755C40.5055 22.7934 40.5165 22.7167 40.5165 22.6428C40.5165 22.5689 40.5055 22.4923 40.4835 22.4102C40.4616 22.3281 40.4232 22.2569 40.3657 22.1912C40.3081 22.1255 40.2286 22.079 40.1271 22.0516C40.0887 22.0406 40.0476 22.0352 40.0037 22.0297C39.9599 22.0269 39.9187 22.0242 39.8831 22.0242H38.992V23.2587Z" fill="black"></path> <path d="M44.4647 25.246V21.37H46.0933C46.1317 21.37 46.1811 21.37 46.2441 21.3755C46.3072 21.3755 46.3648 21.3837 46.4141 21.3919C46.6417 21.4275 46.8309 21.5041 46.979 21.6191C47.127 21.7341 47.2367 21.8819 47.3052 22.0571C47.3765 22.2322 47.4094 22.4293 47.4094 22.6456C47.4094 22.9658 47.3299 23.2423 47.1682 23.4722C47.0064 23.7022 46.7569 23.8445 46.4141 23.8965L46.1043 23.9212H45.1721V25.246H44.4619H44.4647ZM45.1748 23.2587H46.0659C46.1016 23.2587 46.1427 23.2587 46.1866 23.2533C46.2304 23.2505 46.2716 23.2423 46.3099 23.2314C46.4114 23.204 46.4909 23.1575 46.5485 23.0945C46.6061 23.0288 46.6445 22.9576 46.6664 22.8755C46.6883 22.7934 46.6993 22.7167 46.6993 22.6428C46.6993 22.5689 46.6883 22.4923 46.6664 22.4102C46.6445 22.3281 46.6061 22.2569 46.5485 22.1912C46.4909 22.1255 46.4114 22.079 46.3099 22.0516C46.2716 22.0406 46.2304 22.0352 46.1866 22.0297C46.1427 22.0269 46.1016 22.0242 46.0659 22.0242H45.1748V23.2587ZM46.6691 25.246L45.9042 23.6693L46.6307 23.5243L47.4725 25.246H46.6691Z" fill="black"></path> <path d="M52.4161 25.3254C52.0268 25.3254 51.695 25.2405 51.4154 25.0735C51.1357 24.9038 50.9218 24.6684 50.7683 24.3646C50.6175 24.0608 50.5407 23.7076 50.5407 23.3053C50.5407 22.9029 50.6175 22.5498 50.7683 22.2487C50.9191 21.9448 51.1357 21.7094 51.4154 21.5397C51.695 21.37 52.0295 21.2879 52.4161 21.2879C52.8027 21.2879 53.14 21.3727 53.4197 21.5397C53.6993 21.7094 53.9159 21.9448 54.0667 22.2487C54.2175 22.5525 54.2943 22.9056 54.2943 23.3053C54.2943 23.7049 54.2203 24.0608 54.0667 24.3646C53.9159 24.6684 53.6993 24.9038 53.4197 25.0735C53.14 25.2433 52.8055 25.3254 52.4161 25.3254ZM52.4161 24.6602C52.6684 24.663 52.8768 24.6082 53.044 24.4987C53.2113 24.3865 53.3347 24.2277 53.4197 24.0224C53.5047 23.8171 53.5458 23.579 53.5458 23.3053C53.5458 23.0315 53.5047 22.7961 53.4197 22.5936C53.3374 22.3937 53.2113 22.235 53.044 22.1228C52.8768 22.0105 52.6684 21.953 52.4161 21.9503C52.1666 21.9476 51.9582 22.0023 51.791 22.1145C51.6237 22.2268 51.5004 22.3855 51.4154 22.5908C51.3304 22.7961 51.2892 23.0343 51.2892 23.308C51.2892 23.5817 51.3304 23.8171 51.4154 24.0197C51.4976 24.2195 51.6237 24.3783 51.791 24.4905C51.9582 24.6027 52.1666 24.6602 52.4161 24.663V24.6602Z" fill="black"></path> <path d="M57.527 25.246V21.37H59.1557C59.194 21.37 59.2434 21.37 59.3065 21.3755C59.3695 21.3755 59.4271 21.3837 59.4765 21.3919C59.704 21.4275 59.8932 21.5041 60.0413 21.6191C60.1893 21.7341 60.299 21.8819 60.3676 22.0571C60.4388 22.2322 60.4717 22.4293 60.4717 22.6456C60.4717 22.8618 60.4361 23.0562 60.3648 23.2314C60.2935 23.4065 60.1839 23.5544 60.0358 23.6693C59.8877 23.787 59.7013 23.8609 59.4737 23.8993C59.4244 23.9075 59.3668 23.9129 59.3037 23.9157C59.2406 23.9184 59.1913 23.9212 59.1529 23.9212H58.2344V25.246H57.5242H57.527ZM58.2371 23.2587H59.1282C59.1639 23.2587 59.205 23.2587 59.2489 23.2533C59.2927 23.2505 59.3339 23.2423 59.3723 23.2314C59.4737 23.204 59.5532 23.1575 59.6108 23.0945C59.6684 23.0288 59.7068 22.9576 59.7287 22.8755C59.7506 22.7934 59.7616 22.7167 59.7616 22.6428C59.7616 22.5689 59.7506 22.4923 59.7287 22.4102C59.7068 22.3281 59.6684 22.2569 59.6108 22.1912C59.5532 22.1255 59.4737 22.079 59.3723 22.0516C59.3339 22.0406 59.2927 22.0352 59.2489 22.0297C59.205 22.0269 59.1639 22.0242 59.1282 22.0242H58.2371V23.2587Z" fill="black"></path> <path d="M63.7098 21.37H66.235V22.0297H64.4172V22.9001H65.9115V23.5598H64.4172V24.5891H66.235V25.2487H63.7098V21.37Z" fill="black"></path> <path d="M69.5802 25.246V21.37H71.2089C71.2473 21.37 71.2966 21.37 71.3597 21.3755C71.4227 21.3755 71.4803 21.3837 71.5297 21.3919C71.7573 21.4275 71.9464 21.5041 72.0945 21.6191C72.2426 21.7341 72.3522 21.8819 72.4208 22.0571C72.4921 22.2322 72.525 22.4293 72.525 22.6456C72.525 22.9658 72.4455 23.2423 72.2837 23.4722C72.1219 23.7022 71.8724 23.8445 71.5297 23.8965L71.2198 23.9212H70.2876V25.246H69.5775H69.5802ZM70.2904 23.2587H71.1815C71.2171 23.2587 71.2582 23.2587 71.3021 23.2533C71.346 23.2505 71.3871 23.2423 71.4255 23.2314C71.5269 23.204 71.6064 23.1575 71.664 23.0945C71.7216 23.0288 71.76 22.9576 71.7819 22.8755C71.8039 22.7934 71.8148 22.7167 71.8148 22.6428C71.8148 22.5689 71.8039 22.4923 71.7819 22.4102C71.76 22.3281 71.7216 22.2569 71.664 22.1912C71.6064 22.1255 71.5269 22.079 71.4255 22.0516C71.3871 22.0406 71.346 22.0352 71.3021 22.0297C71.2582 22.0269 71.2171 22.0242 71.1815 22.0242H70.2904V23.2587ZM71.7847 25.246L71.0197 23.6693L71.7463 23.5243L72.588 25.246H71.7847Z" fill="black"></path> <path d="M76.7858 25.246V22.0297H75.5519V21.37H78.727V22.0297H77.4932V25.246H76.7858Z" fill="black"></path> <path d="M82.9632 25.246V23.6666L81.6389 21.37H82.4669L83.3224 22.8564L84.1806 21.37H85.0086L83.6843 23.6666V25.246H82.9632Z" fill="black"></path> <path d="M93.3 25.3254C92.9107 25.3254 92.5789 25.2405 92.2992 25.0735C92.0196 24.9038 91.8057 24.6684 91.6522 24.3646C91.5014 24.0608 91.4246 23.7076 91.4246 23.3053C91.4246 22.9029 91.5014 22.5498 91.6522 22.2487C91.803 21.9448 92.0196 21.7094 92.2992 21.5397C92.5789 21.37 92.9134 21.2879 93.3 21.2879C93.6866 21.2879 94.0239 21.3727 94.3035 21.5397C94.5832 21.7094 94.7998 21.9448 94.9506 22.2487C95.1014 22.5525 95.1782 22.9056 95.1782 23.3053C95.1782 23.7049 95.1042 24.0608 94.9506 24.3646C94.7998 24.6684 94.5832 24.9038 94.3035 25.0735C94.0239 25.2433 93.6894 25.3254 93.3 25.3254ZM93.3 24.6602C93.5523 24.663 93.7607 24.6082 93.9279 24.4987C94.0952 24.3865 94.2185 24.2277 94.3035 24.0224C94.3885 23.8171 94.4297 23.579 94.4297 23.3053C94.4297 23.0315 94.3885 22.7961 94.3035 22.5936C94.2213 22.3937 94.0952 22.235 93.9279 22.1228C93.7607 22.0105 93.5523 21.953 93.3 21.9503C93.0505 21.9476 92.8421 22.0023 92.6749 22.1145C92.5076 22.2268 92.3842 22.3855 92.2992 22.5908C92.2142 22.7961 92.1731 23.0343 92.1731 23.308C92.1731 23.5817 92.2142 23.8171 92.2992 24.0197C92.3815 24.2195 92.5076 24.3783 92.6749 24.4905C92.8421 24.6027 93.0505 24.6602 93.3 24.663V24.6602Z" fill="black"></path> <path d="M98.4109 25.246V21.37H100.772V22.079H99.1183V22.9576H100.448V23.6638H99.1183V25.2487H98.4081L98.4109 25.246Z" fill="black"></path> <path d="M103.955 25.246V21.37H106.316V22.079H104.662V22.9576H105.992V23.6638H104.662V25.2487H103.952L103.955 25.246Z" fill="black"></path> <path d="M109.554 25.246V21.37H110.264V25.246H109.554Z" fill="black"></path> <path d="M115.427 25.3254C115.038 25.3254 114.706 25.2405 114.426 25.0735C114.146 24.9038 113.933 24.6684 113.779 24.3646C113.628 24.0608 113.551 23.7076 113.551 23.3053C113.551 22.9029 113.628 22.5498 113.779 22.2487C113.93 21.9448 114.146 21.7094 114.426 21.5397C114.706 21.37 115.04 21.2879 115.427 21.2879C115.874 21.2879 116.249 21.3974 116.551 21.6191C116.853 21.8408 117.064 22.1392 117.187 22.5169L116.474 22.714C116.4 22.4731 116.277 22.287 116.104 22.1529C115.931 22.0187 115.707 21.953 115.43 21.953C115.18 21.953 114.972 22.0078 114.804 22.12C114.637 22.2322 114.511 22.3883 114.426 22.5936C114.341 22.7961 114.3 23.0343 114.3 23.308C114.3 23.5817 114.341 23.8199 114.426 24.0224C114.511 24.225 114.637 24.3837 114.804 24.496C114.972 24.6082 115.18 24.663 115.43 24.663C115.707 24.663 115.931 24.5945 116.104 24.4604C116.277 24.3263 116.4 24.1401 116.474 23.8992L117.187 24.0963C117.064 24.4741 116.853 24.7724 116.551 24.9942C116.249 25.2159 115.877 25.3254 115.427 25.3254Z" fill="black"></path> <path d="M120.475 21.37H123V22.0297H121.182V22.9001H122.676V23.5598H121.182V24.5891H123V25.2487H120.475V21.37Z" fill="black"></path> </g> <defs> <clipPath id="clip0_548_252"> <rect width="123" height="26" fill="white"></rect> </clipPath> </defs> </svg> 